<?xml version="1.0" standalone="no"?>
<!DOCTYPE svg PUBLIC "-//W3C//DTD SVG 20010904//EN"
 "http://www.w3.org/TR/2001/REC-SVG-20010904/DTD/svg10.dtd">
<svg version="1.0" xmlns="http://www.w3.org/2000/svg"
 width="500.000000pt" height="500.000000pt" viewBox="0 0 500.000000 500.000000"
 preserveAspectRatio="xMidYMid meet">

<g transform="translate(0.000000,500.000000) scale(0.100000,-0.100000)"
fill="#110f8b" stroke="none">
<path d="M2272 4839 c-574 -51 -1116 -298 -1521 -693 -382 -374 -608 -808
-688 -1326 -24 -159 -24 -481 0 -640 79 -509 303 -946 674 -1312 194 -192 391
-332 638 -453 182 -89 305 -135 479 -180 445 -113 857 -113 1302 0 174 45 297
91 479 180 247 121 445 261 639 453 370 365 594 803 673 1312 24 159 24 481 0
640 -64 415 -228 788 -488 1110 -89 110 -262 284 -364 365 -188 151 -479 315
-709 400 -336 124 -746 177 -1114 144z m583 -1708 c3 -5 -45 -37 -107 -70
-219 -119 -273 -154 -386 -250 -53 -45 -155 -174 -146 -184 3 -3 28 7 57 20
34 17 71 26 105 27 l54 1 86 -93 c100 -107 108 -109 200 -62 71 36 121 40 129
10 3 -11 9 -20 14 -20 11 0 59 75 59 92 0 7 7 21 14 31 11 14 29 17 101 17
l88 0 -6 -38 c-8 -64 -77 -223 -128 -298 -43 -62 -173 -197 -251 -261 -47 -38
-199 -109 -273 -127 -38 -10 -86 -21 -105 -26 -19 -5 -64 -12 -100 -15 -36 -3
-80 -8 -97 -12 -19 -3 -33 -1 -33 5 0 9 16 18 185 97 44 21 109 59 145 85 36
26 88 59 115 73 57 29 169 139 180 177 5 14 19 40 33 58 18 24 21 32 9 32 -8
0 -21 -7 -28 -17 -35 -41 -136 -56 -200 -29 -19 8 -61 42 -94 76 -84 86 -100
93 -195 84 -73 -6 -79 -5 -92 15 -7 11 -16 21 -20 21 -4 0 -28 -40 -53 -90
l-45 -90 -90 0 c-61 0 -90 4 -90 11 0 27 45 159 73 214 49 99 100 165 209 271
135 133 234 190 398 228 177 41 274 53 285 37z"/>
</g>
</svg>
